<svg width="114" height="114" viewBox="0 0 114 114" fill="none" xmlns="http://www.w3.org/2000/svg">
<path d="M14.2975 53.295V74.6225C14.2975 95.95 22.8475 104.5 44.175 104.5H69.7775C91.105 104.5 99.655 95.95 99.655 74.6225V53.295" stroke="black" stroke-width="1.5" stroke-linecap="round" stroke-linejoin="round"/>
<path d="M57 57C65.6925 57 72.105 49.9225 71.25 41.23L68.115 9.5H45.9325L42.75 41.23C41.895 49.9225 48.3075 57 57 57Z" stroke="black" stroke-width="1.5" stroke-linecap="round" stroke-linejoin="round"/>
<path d="M86.9725 57C96.5675 57 103.597 49.21 102.647 39.6625L101.317 26.6C99.6075 14.25 94.8575 9.5 82.4125 9.5H67.925L71.25 42.7975C72.0575 50.635 79.135 57 86.9725 57ZM26.79 57C34.6275 57 41.705 50.635 42.465 42.7975L43.51 32.3L45.79 9.5H31.3025C18.8575 9.5 14.1075 14.25 12.3975 26.6L11.115 39.6625C10.165 49.21 17.195 57 26.79 57ZM57 80.75C49.0675 80.75 45.125 84.6925 45.125 92.625V104.5H68.875V92.625C68.875 84.6925 64.9325 80.75 57 80.75Z" stroke="black" stroke-width="1.5" stroke-linecap="round" stroke-linejoin="round"/>
</svg>
